/* XPM */
static char *result[] = {
/* columns rows colors chars-per-pixel */
"32 32 70 1 ",
"  c #770000",
". c #770001",
"X c #78374A",
"o c #775774",
"O c #785774",
"+ c #795774",
"@ c #7A5774",
"# c #7B5774",
"$ c #7E5774",
"% c #7B5874",
"& c #820B0B",
"* c #860F0F",
"= c #891110",
"- c #891212",
"; c #84384A",
": c #82445A",
"> c #88455B",
", c #BE4747",
"< c #B64549",
"1 c #BE4848",
"2 c #BF4848",
"3 c #844C65",
"4 c #865570",
"5 c #865672",
"6 c #805774",
"7 c #815774",
"8 c #825874",
"9 c #845874",
"0 c #855874",
"q c #865874",
"w c #875874",
"e c #885874",
"r c #895874",
"t c #8A5874",
"y c #8C5874",
"u c #8E5874",
"i c #8F5874",
"p c #8F5974",
"a c #A75C73",
"s c #B35E73",
"d c #B75F73",
"f c #BC6172",
"g c #BD6172",
"h c #BE6172",
"j c #CE5858",
"k c #CF5959",
"l c #D86262",
"z c #C36372",
"x c #C56372",
"c c #C86472",
"v c #CB6572",
"b c #D06771",
"n c #D16771",
"m c #D26871",
"M c #D66971",
"N c #D76971",
"B c #D76A71",
"V c #D86A71",
"C c #DA6B71",
"Z c #DC6B71",
"A c #DD6C70",
"S c #DE6C70",
"D c #E46D6D",
"F c #E56E6E",
"G c #E26E70",
"H c #E46F70",
"J c #E56F70",
"K c #E67070",
"L c #E77070",
"P c None",
/* pixels */
"PPPPPPPPPPPPPPPPPPPPPPPPPPPPPPPP",
"PPPPPPPPPPPPPPPPPPPPPPPPPPPPPPPP",
"PPPPPPPPPPPPPPPPPPPPPPPPPPPPPPPP",
"PPPPPPPPPPPPPPPPPPPPPPPPPPPPPPPP",
"PPPPPPPPPPPPPwwwwwwwPPPPPPPPPPPP",
"PPPPPPPPPwwwwwwwwwwwwwwwPPPPPPPP",
"PPPPPPPPPwwwwwwwwwwwwwwwPPPPPPPP",
"PPPPPPP0000wwwwwww000qwwwPPPPPPP",
"PPPPPP#xvvc7wwwwwyvvvdqwwwwPPPPP",
"PPPPPP#CKKG+wwwwwiKKKv0wwwwPPPPP",
"PPPPPPfSKKHffewwahKKKMgs9wwPPPPP",
"PPPPPPLKKKKLKtwwxLKKKKLB$wwPPPPP",
"PPPPPP--*kKKKtww>=-&DKKN$wwPPPPP",
"PPPPPP.  jKKKtww:   DKKN$wwPPPPP",
"PPPPw4   jKKKtww:   DKKN$wwwwPPP",
"PPPPw5X<1lJnnrww3;2,FAmx8wwwwPPP",
"PPPPww%CLKGo8wwwwpLLKv69wwwwwPPP",
"PPPPww$bZZV$wwwwwuZZZzqwwwwwwPPP",
"PPPPwww$OO@wwwwwwwOOO7wwwwwwwPPP",
"PPPPwwwwwwwwwwwwwwwwwwwwwwwwwPPP",
"PPPPwwwwwwwwwwwwwwwwwwwwwwwwwPPP",
"PPPPwwwwwwwwwwwwwwwwwwwwwwwwwPPP",
"PPPPwwwwwwwwwwwwwwwwwwwwwwwwwPPP",
"PPPPwwwwwwwwwwwwwwwwwwwwwwwwwPPP",
"PPPPwwwwwwwwwwwwwwwwwwwwwwwwwPPP",
"PPPPwwwwwwwPwwwwwwwwPPwwwwwwwPPP",
"PPPPPPwwwPPPPPwwwwPPPPPPwwwPPPPP",
"PPPPPPwwwPPPPPwwwwPPPPPPwwPPPPPP",
"PPPPPPPPPPPPPPPPPPPPPPPPPPPPPPPP",
"PPPPPPPPPPPPPPPPPPPPPPPPPPPPPPPP",
"PPPPPPPPPPPPPPPPPPPPPPPPPPPPPPPP",
"PPPPPPPPPPPPPPPPPPPPPPPPPPPPPPPP"
};
