/* XPM */
static char *result[] = {
/* columns rows colors chars-per-pixel */
"32 32 53 1 ",
"  c #770000",
". c #77080D",
"X c #77151D",
"o c #78151D",
"O c #7A5773",
"+ c #7A5774",
"@ c #7B5774",
"# c #7E5774",
"$ c #7B5874",
"% c #820C0C",
"& c #921C1C",
"* c #B63F3F",
"= c #875773",
"- c #835874",
"; c #845874",
": c #865874",
"> c #875874",
", c #885874",
"< c #8A5874",
"1 c #8F5874",
"2 c #945974",
"3 c #955974",
"4 c #975974",
"5 c #9A5A73",
"6 c #9F5A73",
"7 c #985974",
"8 c #A25B73",
"9 c #A85C73",
"0 c #A95C73",
"q c #BE6172",
"w c #C14A4A",
"e c #C34D4D",
"r c #C44D4D",
"t c #C64F4F",
"y c #CF5959",
"u c #D45D5D",
"i c #C06272",
"p c #C16272",
"a c #D06771",
"s c #D16771",
"d c #D76A71",
"f c #D86A71",
"g c #D96A71",
"h c #D96B71",
"j c #DA6B71",
"k c #E06D70",
"l c #E36E70",
"z c #E36F71",
"x c #E46F70",
"c c #E56F70",
"v c #E67070",
"b c #E77070",
"n c None",
/* pixels */
"nnnnnnnnnnnnnnnnnnnnnnnnnnnnnnnn",
"nnnnnnnnnnnnnnnnnnnnnnnnnnnnnnnn",
"nnnnnnnnnnnnnnnnnnnnnnnnnnnnnnnn",
"nnnnnnnnnnnnnnnnnnnnnnnnnnnnnnnn",
"nnnnnnnnnnnnn>>>>>>>nnnnnnnnnnnn",
"nnnnnnnnn   .=>>>>>>o   nnnnnnnn",
"nnnnnnnnn   .O->>>+$X   nnnnnnnn",
"nnnnnnnvbw  %lq>>1lz&  *bnnnnnnn",
"nnnnnnnkvueervi>>1vbteeybnnnnnnn",
"nnnnnn@gvvbbbbi>>1vvvbbvb2>nnnnn",
"nnnnnn@hvvvvvbi>>1vvvvvvb2>nnnnn",
"nnnnnn@jbbvvvbp>>1bbvvvvb2>nnnnn",
"nnnnnn:34svvv51>>>73xvvf3,>nnnnn",
"nnnnnn>>;abbb<>>>>>#cbbd#>>nnnnn",
"nnnn>>>>:6000>>>>>>:9008:>>>>nnn",
"nnnn>>>>>>>>>>>>>>>>>>>>>>>>>nnn",
"nnnn>>>>>>>>>>>>>>>>>>>>>>>>>nnn",
"nnnn>>>>>>>>>>>>>>>>>>>>>>>>>nnn",
"nnnn>>>>>>>>>>>>>>>>>>>>>>>>>nnn",
"nnnn>>>>>>>>>>>>>>>>>>>>>>>>>nnn",
"nnnn>>>>>>>>>>>>>>>>>>>>>>>>>nnn",
"nnnn>>>>>>>>>>>>>>>>>>>>>>>>>nnn",
"nnnn>>>>>>>>>>>>>>>>>>>>>>>>>nnn",
"nnnn>>>>>>>>>>>>>>>>>>>>>>>>>nnn",
"nnnn>>>>>>>>>>>>>>>>>>>>>>>>>nnn",
"nnnn>>>nn>>>>>>nnn>>>>>>nn>>>nnn",
"nnnnnnnnnn>>>>nnnnn>>>>nnnnnnnnn",
"nnnnnnnnnnn>>nnnnnnn>>nnnnnnnnnn",
"nnnnnnnnnnnnnnnnnnnnnnnnnnnnnnnn",
"nnnnnnnnnnnnnnnnnnnnnnnnnnnnnnnn",
"nnnnnnnnnnnnnnnnnnnnnnnnnnnnnnnn",
"nnnnnnnnnnnnnnnnnnnnnnnnnnnnnnnn"
};
