/* XPM */
static char *result[] = {
/* columns rows colors chars-per-pixel */
"32 32 62 1 ",
"  c #770000",
". c #770001",
"X c #790302",
"o c #790303",
"O c #7F0808",
"+ c #7F0909",
"@ c #7C5774",
"# c #7D5774",
"$ c #7E5774",
"% c #810A0A",
"& c #803C50",
"* c #813C50",
"= c #803C51",
"- c #803D52",
"; c #8A3E51",
": c #A94551",
"> c #834A62",
", c #85526C",
"< c #865570",
"1 c #825874",
"2 c #835874",
"3 c #845874",
"4 c #855874",
"5 c #865874",
"6 c #875874",
"7 c #915974",
"8 c #945974",
"9 c #965974",
"0 c #9C5A73",
"q c #985974",
"w c #B35E73",
"e c #B45F73",
"r c #B75F73",
"t c #B86073",
"y c #BB6073",
"u c #BD6172",
"i c #C54E4E",
"p c #C64F4F",
"a c #D66060",
"s c #DE6767",
"d c #C06272",
"f c #C26272",
"g c #C46372",
"h c #C66472",
"j c #C76472",
"k c #C86472",
"l c #CA6572",
"z c #CD6671",
"x c #CF6771",
"c c #D16771",
"v c #D26871",
"b c #D36871",
"n c #D66971",
"m c #D86A71",
"M c #D96A71",
"N c #DA6B71",
"B c #E56F6F",
"V c #E66F6F",
"C c #E46F70",
"Z c #E67070",
"A c #E77070",
"S c None",
/* pixels */
"SSSSSSSSSSSSSSSSSSSSSSSSSSSSSSSS",
"SSSSSSSSSSSSSSSSSSSSSSSSSSSSSSSS",
"SSSSSSSSSSSSSSSSSSSSSSSSSSSSSSSS",
"SSSSSSSSSSSSS6666666SSSSSSSSSSSS",
"SSSSSSSSSSSSS6666666SSSSSSSSSSSS",
"SSSSSSSSS666666666666666SSSSSSSS",
"SSSSSSSSS666666666666666SSSSSSSS",
"SSSSSSS666511146666664111SSSSSSS",
"SSSSSS66669vcvw666665tccv86SSSSS",
"SSSSSS66660AZAd666665jZZA86SSSSS",
"SSSSSS665ekAZZbgw563fnZZZhgSSSSS",
"SSSSSS663xZZZBBVz36$CZZVBVVSSSSS",
"SSSSSS663xZZV%oX*66$CZZa ooSSSSS",
"SSSSSS663xZZV+  &66$CZZa  .SSSSS",
"SSSS66663xZZVO  &66$CZZa   ,6SSS",
"SSSS66664yxAVp:->662lNZsi;=<6SSS",
"SSSS6666650AZAd666663jZZA8666SSS",
"SSSS666666qMmmr666665ummm7666SSS",
"SSSS6666665@#@36666662@#@5666SSS",
"SSSS6666666666666666666666666SSS",
"SSSS6666666666666666666666666SSS",
"SSSS6666666666666666666666666SSS",
"SSSS6666666666666666666666666SSS",
"SSSS6666666666666666666666666SSS",
"SSSS6666666666666666666666666SSS",
"SSSS666S6666666SSS6666666S666SSS",
"SSSSSSSSS6666SSSSSSS6666SSSSSSSS",
"SSSSSSSSSS66SSSSSSSSS66SSSSSSSSS",
"SSSSSSSSSSSSSSSSSSSSSSSSSSSSSSSS",
"SSSSSSSSSSSSSSSSSSSSSSSSSSSSSSSS",
"SSSSSSSSSSSSSSSSSSSSSSSSSSSSSSSS",
"SSSSSSSSSSSSSSSSSSSSSSSSSSSSSSSS"
};
