/* XPM */
static char *result[] = {
/* columns rows colors chars-per-pixel */
"32 32 56 1 ",
"  c #770000",
". c #770203",
"X c #77131B",
"o c #793142",
"O c #7A3A4E",
"+ c #7B506A",
"@ c #7D5773",
"# c #7B5774",
"$ c #7E5774",
"% c #7E5874",
"& c #7E5875",
"* c #800A0A",
"= c #800B0C",
"- c #8E1A1C",
"; c #921B1B",
": c #AD3C41",
"> c #B74040",
", c #B8474D",
"< c #865672",
"1 c #865772",
"2 c #875772",
"3 c #865773",
"4 c #805774",
"5 c #815774",
"6 c #845874",
"7 c #865874",
"8 c #875874",
"9 c #885874",
"0 c #8A5874",
"q c #8D5874",
"w c #8F5874",
"e c #915974",
"r c #945974",
"t c #B45F73",
"y c #B65F73",
"u c #B96073",
"i c #C24C4C",
"p c #CB5555",
"a c #CD5656",
"s c #D45E5E",
"d c #D86161",
"f c #C06272",
"g c #C26272",
"h c #C46372",
"j c #CC6672",
"k c #D06771",
"l c #D76971",
"z c #D76A71",
"x c #D96B71",
"c c #D86A72",
"v c #E6706F",
"b c #E46F70",
"n c #E67070",
"m c #E77070",
"M c #E77170",
"N c None",
/* pixels */
"NNNNNNNNNNNNNNNNNNNNNNNNNNNNNNNN",
"NNNNNNNNNNNNNNNNNNNNNNNNNNNNNNNN",
"NNNNNNNNNNNNNNNNNNNNNNNNNNNNNNNN",
"NNNNNNNNNNNNNNNNNNNNNNNNNNNNNNNN",
"NNNNNNNNNNNNN8888888NNNNNNNNNNNN",
"NNNNNNNNNNNNN8888888NNNNNNNNNNNN",
"NNNNNNNNN888888888888888NNNNNNNN",
"NNNNNNNNN888888888888888NNNNNNNN",
"NNNNNNN888888888888888888NNNNNNN",
"NNNNNN888888888888888888888NNNNN",
"NNNNNN888888888888888888888NNNNN",
"NNNNNN887thhh9888886ghhu688NNNNN",
"NNNNNN8qqknnne0888w0bnnz088NNNNN",
"NNNNNN#xnnnnnmf88wnnnnnnmr8NNNNN",
"NNNNNN#xnnnnnmf88wnnnnnnmr8NNNNN",
"NNNN88#xnnnnnmf88wnnnnnnmr888NNN",
"NNNN88#xndpppnf88wnmappsmr888NNN",
"NNNN88#xmi  *vf88wnm;  >Mr888NNN",
"NNNN884jz,  =ly88qzc-  :ce888NNN",
"NNNN8885%O  .@6888$%X  o&7888NNN",
"NNNN888882<<<8888888<<<188888NNN",
"NNNN8888888888888888888888888NNN",
"NNNN8888888888888888888888888NNN",
"NNNN8888888888888888888888888NNN",
"NNNN8888888888888888888888888NNN",
"NNNN8888888888888888888888888NNN",
"NNNN888NN888888NNN888888NN888NNN",
"NNNNNNNNNN+883NNNNN8883NNNNNNNNN",
"NNNNNNNNNNN88NNNNNNN88NNNNNNNNNN",
"NNNNNNNNNNNNNNNNNNNNNNNNNNNNNNNN",
"NNNNNNNNNNNNNNNNNNNNNNNNNNNNNNNN",
"NNNNNNNNNNNNNNNNNNNNNNNNNNNNNNNN"
};
