/* XPM */
static char *result[] = {
/* columns rows colors chars-per-pixel */
"32 32 214 2 ",
"   c #04010A",
".  c #02000F",
"X  c #010014",
"o  c #010015",
"O  c #010016",
"+  c #010017",
"@  c #000028",
"#  c #01004E",
"$  c #010018",
"%  c #020055",
"&  c #050283",
"*  c #01004F",
"=  c #01011C",
"-  c #010051",
";  c #080A9B",
":  c #050A94",
">  c #050387",
",  c #01001E",
"<  c #070A98",
"1  c #080A9A",
"2  c #000A87",
"3  c #060A96",
"4  c #01002C",
"5  c #05061D",
"6  c #030352",
"7  c #121BA5",
"8  c #0B0E9E",
"9  c #010B88",
"0  c #5F98F2",
"q  c #010C89",
"w  c #070A99",
"e  c #070B89",
"r  c #040453",
"t  c #02012D",
"y  c #010115",
"u  c #080E23",
"i  c #030452",
"p  c #1323A7",
"a  c #0A0E9D",
"s  c #05138C",
"d  c #5F9BF3",
"f  c #69DDFF",
"g  c #609CF3",
"h  c #010C88",
"j  c #050A87",
"k  c #030552",
"l  c #020223",
"z  c #020216",
"x  c #060F22",
"c  c #030451",
"v  c #0F1EA2",
"b  c #04158C",
"n  c #5F9AF2",
"m  c #55E8F0",
"M  c #5E9CF2",
"N  c #010D88",
"B  c #020987",
"V  c #030652",
"C  c #020417",
"Z  c #070F21",
"A  c #030551",
"S  c #0A119D",
"D  c #0B119D",
"F  c #5F9BF2",
"G  c #5AF6E9",
"H  c #5FA0F1",
"J  c #020986",
"K  c #060D56",
"L  c #071021",
"P  c #040853",
"I  c #0C159F",
"U  c #04148B",
"Y  c #62FFE7",
"T  c #070A97",
"R  c #080C87",
"E  c #050953",
"W  c #0C169E",
"Q  c #0A0F9C",
"!  c #04138A",
"~  c #63FCE0",
"^  c #5F9FF1",
"/  c #070B98",
"(  c #090E87",
")  c #060D55",
"_  c #04081A",
"`  c #070F20",
"'  c #0C149E",
"]  c #0A109D",
"[  c #031189",
"{  c #5F9BF1",
"}  c #64FDDE",
"|  c #5F9EF1",
" . c #080B86",
".. c #070F1F",
"X. c #02014F",
"o. c #0A109C",
"O. c #60FFD7",
"+. c #5F9DF1",
"@. c #020316",
"#. c #060F1F",
"$. c #020450",
"%. c #021089",
"&. c #5DFCD4",
"*. c #010E88",
"=. c #060B96",
"-. c #030518",
";. c #030651",
":. c #0B129D",
">. c #65FFDD",
",. c #020E88",
"<. c #070B97",
"1. c #090D87",
"2. c #050A1C",
"3. c #060E1F",
"4. c #040752",
"5. c #03128A",
"6. c #65FDE4",
"7. c #020F89",
"8. c #04081B",
"9. c #060D1F",
"0. c #030752",
"q. c #0A0F9D",
"w. c #03118A",
"e. c #60FDEC",
"r. c #5F9EF2",
"t. c #080B87",
"y. c #020317",
"u. c #050C1F",
"i. c #090F9D",
"p. c #090F9C",
"a. c #02108A",
"s. c #5E9DF1",
"d. c #50F0E4",
"f. c #5E9BF1",
"g. c #03148B",
"h. c #040954",
"j. c #04091C",
"k. c #010D89",
"l. c #5CA3F0",
"z. c #4BF1E5",
"x. c #5E9BF2",
"c. c #04158B",
"v. c #070A86",
"b. c #071259",
"n. c #04091D",
"m. c #0B159F",
"M. c #5DA3F2",
"N. c #4DEFF1",
"B. c #03128B",
"V. c #060785",
"C. c #06115A",
"Z. c #020225",
"A. c #030519",
"S. c #090E9D",
"D. c #0D18A1",
"F. c #5D9FF3",
"G. c #4CE1F9",
"H. c #5E9AF2",
"J. c #020F8A",
"K. c #070B99",
"L. c #060585",
"P. c #07115B",
"I. c #020126",
"U. c #05091F",
"Y. c #04081D",
"T. c #0A109E",
"R. c #0C13A0",
"E. c #000B88",
"W. c #5E9DF3",
"Q. c #58C9FF",
"!. c #5F9AF3",
"~. c #020E89",
"^. c #060484",
"/. c #060D59",
"(. c #010124",
"). c #020217",
"_. c #020116",
"`. c #04051C",
"'. c #030453",
"]. c #0D13A1",
"[. c #090B9C",
"{. c #5C95F1",
"}. c #5992F0",
"|. c #5B94F1",
" X c #5B95F1",
".X c #5D96F1",
"XX c #5A94F0",
"oX c #5E97F2",
"OX c #5590EF",
"+X c #030F8B",
"@X c #040655",
"#X c #010019",
"$X c #010157",
"%X c #070A9A",
"&X c #000C8D",
"*X c #000B8B",
"=X c #060A97",
"-X c #010050",
";X c #01011D",
":X c #02025D",
">X c #050A9A",
",X c #070A9B",
"<X c #050385",
"1X c #010054",
"2X c #02007D",
"3X c #03017F",
"4X c #01014B",
"5X c #010149",
"6X c #01004D",
"7X c #00001E",
"8X c #000025",
"9X c #00001F",
"0X c #000013",
"qX c #000008",
/* pixels */
"                                                              . ",
"X X X X X X X X X X X X X X X X X X X X X X X X X X X X X X X X ",
"o O + @ @ @ @ @ @ @ @ @ @ @ @ @ @ @ @ @ @ @ @ @ @ @ @ @ @ o o X ",
"X + X # # # # # # # # # # # # # # # # # # # # # # # # # # o X X ",
"X $ o % & & & & & & & & & & & & & & & & & & & & & & & & * + X X ",
"o $ = - ; ; ; ; ; ; ; ; ; ; ; ; ; ; ; ; ; ; ; ; ; ; : > * , X X ",
"o O + * < 1 2 2 2 2 2 2 2 2 2 2 2 2 2 2 2 2 2 2 2 2 3 & * 4 X X ",
"X X 5 6 7 8 9 0 0 0 0 0 0 0 0 0 0 0 0 0 0 0 0 0 0 q w e r t y X ",
"X X u i p a s d f f f f f f f f f f f f f f f f g h < j k l z X ",
"X y x c v a b n m m m m m m m m m m m m m m m m M N < B V z C X ",
"X X Z A S D b F G G G G G G G G G G G G G G G G H N < J K z C X ",
"X y L P I S U F Y Y Y Y Y Y Y Y Y Y Y Y Y Y Y Y H N T R K z z y ",
"y X L E W Q ! F ~ ~ ~ ~ ~ ~ ~ ~ ~ ~ ~ ~ ~ ~ ~ ~ ^ N / ( ) z z X ",
"_ X ` E ' ] [ { } } } } } } } } } } } } } } } } | N /  .) y z X ",
"C X ..X.] o.[ { O.O.O.O.O.O.O.O.O.O.O.O.O.O.O.O.+.N /  .) @.y y ",
"X y #.$.D o.%.{ &.&.&.&.&.&.&.&.&.&.&.&.&.&.&.&.+.*.=. .) y z X ",
"X -.` ;.:.] [ { >.>.>.>.>.>.>.>.>.>.>.>.>.>.>.>.+.,.<.1.) z y X ",
"X 2.3.4.:.] 5.n 6.6.6.6.6.6.6.6.6.6.6.6.6.6.6.6.| 7.<.1.K z X X ",
"X 8.9.0.D q.w.n e.e.e.e.e.e.e.e.e.e.e.e.e.e.e.e.r.w.<.t.K y.X X ",
"X z u.A i.p.a.s.d.d.d.d.d.d.d.d.d.d.d.d.d.d.d.d.f.g./  .h.C X X ",
"X z j.A i.S k.l.z.z.z.z.z.z.z.z.z.z.z.z.z.z.z.z.x.c./ v.b.z X X ",
"X y n.A q.m.h M.N.N.N.N.N.N.N.N.N.N.N.N.N.N.N.N.x.B./ V.C.Z.X X ",
"y A.n.k S.D.N F.G.G.G.G.G.G.G.G.G.G.G.G.G.G.G.G.H.J.K.L.P.I.X y ",
"z U.Y.k T.R.E.W.Q.Q.Q.Q.Q.Q.Q.Q.Q.Q.Q.Q.Q.Q.Q.Q.!.~.; ^./.(.X X ",
")._.`.'.].[.9 {.}.|. X{.{.{..X.X|.XX|.{.{.|.oXoXOX+X1 ^.@Xy X X ",
"= O #X$X%X; 2 &X&X&X&X&X&X&X&X&X&X&X&X&X&X&X&X&X&X*X=X& -Xo X X ",
";X$ #X:X>X,X>X>X>X>X>X>X>X>X>X>X>X>X>X>X>X>X>X>X>X>X>X<X-XO X o ",
"#X#X$ 1X2X2X2X2X2X2X2X2X2X2X2X2X2X2X2X2X2X2X2X2X2X2X2X3X-XO X X ",
"O O O 4X5X5X5X5X5X5X5X5X5X5X5X5X5X5X5X5X5X5X5X5X5X5X5X5X6Xo X + ",
"O O 7X8X8X8X8X8X8X8X8X8X8X8X8X8X8X8X8X8X8X8X8X8X8X8X8X8X8Xo X 9X",
"0X0X0X0X0X0X0X0X0X0X0X0X0X0X0X0X0X0X0X0X0X0X0X0X0X0X0X0X0XX 0X0X",
"qXqXqXqXqXqXqXqXqXqXqXqXqXqXqXqXqXqXqXqXqXqXqXqXqXqXqXqXqXqXqXqX"
};
