/* XPM */
static char *result[] = {
/* columns rows colors chars-per-pixel */
"32 32 37 1 ",
"  c #350805",
". c #390905",
"X c #3C0906",
"o c #420A06",
"O c #460B07",
"+ c #490C07",
"@ c #4D0C08",
"# c #500D08",
"$ c #560E09",
"% c #590F09",
"& c #5E100A",
"* c #901C14",
"= c #971E16",
"- c #991F16",
"; c #9B2017",
": c #9C2017",
"> c #A12218",
", c #A6231A",
"< c #A9241A",
"1 c #AE261C",
"2 c #B0271C",
"3 c #B2281D",
"4 c #B4281E",
"5 c #DF3B2F",
"6 c #FF8F84",
"7 c #FF9085",
"8 c #FF9389",
"9 c #FF9489",
"0 c #FF978C",
"q c #FF998E",
"w c #FF9C92",
"e c #FF9E94",
"r c #FFA59B",
"t c #FFA89F",
"y c #FFABA2",
"u c #FFAEA5",
"i c None",
/* pixels */
"ir9890qqwwwwq09989877767777777ri",
"r5=-:><134431<>:-*************5r",
"9*+O@#$%&&&&&$#@OOOoooooooooo+*9",
"9*o  .XXXXXXXX..             O=9",
"9*o                          O;9",
"9*o                         .@>9",
"9*o                         .#,0",
"8*o                         X%<q",
"8*o                         X&2q",
"8*o                         X&3e",
"8*o                         X&4w",
"9*o                         X&3e",
"8*o                         X&2w",
"9*O                         X%<q",
"9-O                         .$,0",
"9;+                         .@>9",
"9>@.                         +;9",
"q,$.                         O=9",
"q<%X                         O*9",
"w2&X                         o*8",
"e4&X                         o*8",
"w4&X                         o*8",
"e3&X                         o*8",
"w2&X                         o*8",
"q<%X                         o*8",
"0,#.                         o*8",
"9>@.                         o*8",
"9;+                          o*9",
"9-O              ..XXXXXX..  o*9",
"9*+oooooooooooOO@#$&&&&&%$#@O+*9",
"y5*************-:><134431<>:-=5u",
"ir66766667777798800qwwwwq09999ti"
};
